<svg width="36" height="36" viewBox="0 0 36 36" fill="none" xmlns="http://www.w3.org/2000/svg">
<g filter="url(#filter0_i_632_30189)">
<path d="M7.5 7.50089C7.49984 6.97303 7.63897 6.45447 7.90333 5.99757C8.16768 5.54068 8.54791 5.16162 9.00563 4.89868C9.46334 4.63574 9.98233 4.49823 10.5102 4.50002C11.038 4.50181 11.5561 4.64285 12.012 4.90889L30.0075 15.4059C30.4616 15.6694 30.8387 16.0475 31.1009 16.5024C31.3631 16.9573 31.5014 17.473 31.5019 17.9981C31.5023 18.5232 31.3649 19.0391 31.1035 19.4945C30.8421 19.9498 30.4657 20.3286 30.012 20.5929L12.012 31.0929C11.5561 31.3589 11.038 31.5 10.5102 31.5018C9.98233 31.5036 9.46334 31.366 9.00563 31.1031C8.54791 30.8402 8.16768 30.4611 7.90333 30.0042C7.63897 29.5473 7.49984 29.0288 7.5 28.5009V7.50089Z" fill="#E6DFD5"/>
</g>
<defs>
<filter id="filter0_i_632_30189" x="7.5" y="4.5" width="25" height="28" filterUnits="userSpaceOnUse" color-interpolation-filters="sRGB">
<feFlood flood-opacity="0" result="BackgroundImageFix"/>
<feBlend mode="normal" in="SourceGraphic" in2="BackgroundImageFix" result="shape"/>
<feColorMatrix in="SourceAlpha" type="matrix" values="0 0 0 0 0 0 0 0 0 0 0 0 0 0 0 0 0 0 127 0" result="hardAlpha"/>
<feOffset dx="1" dy="1"/>
<feGaussianBlur stdDeviation="1"/>
<feComposite in2="hardAlpha" operator="arithmetic" k2="-1" k3="1"/>
<feColorMatrix type="matrix" values="0 0 0 0 0 0 0 0 0 0 0 0 0 0 0 0 0 0 0.15 0"/>
<feBlend mode="normal" in2="shape" result="effect1_innerShadow_632_30189"/>
</filter>
</defs>
</svg>
