<svg width="24" height="24" viewBox="0 0 24 24" fill="none" xmlns="http://www.w3.org/2000/svg">
<g filter="url(#filter0_i_617_30186)">
<path d="M17.971 4.28502C18.2745 4.10292 18.6209 4.00462 18.9748 4.00016C19.3287 3.99569 19.6774 4.08522 19.9854 4.2596C20.2934 4.43398 20.5496 4.68697 20.7278 4.99274C20.9061 5.2985 21 5.64609 21 6.00002V18C21 18.3539 20.9061 18.7015 20.7278 19.0073C20.5496 19.3131 20.2934 19.5661 19.9854 19.7404C19.6774 19.9148 19.3287 20.0043 18.9748 19.9999C18.6209 19.9954 18.2745 19.8971 17.971 19.715L7.974 13.717C7.67723 13.5397 7.43149 13.2885 7.26075 12.9879C7.09001 12.6873 7.0001 12.3476 6.9998 12.0019C6.9995 11.6562 7.08881 11.3163 7.25902 11.0154C7.42924 10.7145 7.67454 10.4628 7.971 10.285L17.971 4.28502Z" fill="#E6DFD5"/>
</g>
<g filter="url(#filter1_i_617_30186)">
<rect width="3" height="16" transform="matrix(-1 0 0 1 5 4)" fill="#E6DFD5"/>
</g>
<defs>
<filter id="filter0_i_617_30186" x="7" y="4" width="15" height="17" filterUnits="userSpaceOnUse" color-interpolation-filters="sRGB">
<feFlood flood-opacity="0" result="BackgroundImageFix"/>
<feBlend mode="normal" in="SourceGraphic" in2="BackgroundImageFix" result="shape"/>
<feColorMatrix in="SourceAlpha" type="matrix" values="0 0 0 0 0 0 0 0 0 0 0 0 0 0 0 0 0 0 127 0" result="hardAlpha"/>
<feOffset dx="1" dy="1"/>
<feGaussianBlur stdDeviation="1"/>
<feComposite in2="hardAlpha" operator="arithmetic" k2="-1" k3="1"/>
<feColorMatrix type="matrix" values="0 0 0 0 0 0 0 0 0 0 0 0 0 0 0 0 0 0 0.13 0"/>
<feBlend mode="normal" in2="shape" result="effect1_innerShadow_617_30186"/>
</filter>
<filter id="filter1_i_617_30186" x="2" y="4" width="4" height="17" filterUnits="userSpaceOnUse" color-interpolation-filters="sRGB">
<feFlood flood-opacity="0" result="BackgroundImageFix"/>
<feBlend mode="normal" in="SourceGraphic" in2="BackgroundImageFix" result="shape"/>
<feColorMatrix in="SourceAlpha" type="matrix" values="0 0 0 0 0 0 0 0 0 0 0 0 0 0 0 0 0 0 127 0" result="hardAlpha"/>
<feOffset dx="1" dy="1"/>
<feGaussianBlur stdDeviation="1"/>
<feComposite in2="hardAlpha" operator="arithmetic" k2="-1" k3="1"/>
<feColorMatrix type="matrix" values="0 0 0 0 0 0 0 0 0 0 0 0 0 0 0 0 0 0 0.13 0"/>
<feBlend mode="normal" in2="shape" result="effect1_innerShadow_617_30186"/>
</filter>
</defs>
</svg>
